<svg xmlns="http://www.w3.org/2000/svg" viewBox="0 0 47 47"><defs><style>.cls-1{fill:#b09a40;}</style></defs><title>Asset 3</title><g id="Layer_2" data-name="Layer 2"><g id="Layer_1-2" data-name="Layer 1"><path class="cls-1" d="M23.5,1A22.5,22.5,0,1,1,1,23.5,22.52,22.52,0,0,1,23.5,1m0-1A23.5,23.5,0,1,0,47,23.5,23.5,23.5,0,0,0,23.5,0Z"/><path class="cls-1" d="M33.92,13.94A24.75,24.75,0,0,0,27.8,12a.09.09,0,0,0-.1.05,17.22,17.22,0,0,0-.76,1.56,23.33,23.33,0,0,0-6.88,0,14.1,14.1,0,0,0-.77-1.56.1.1,0,0,0-.1-.05,24.75,24.75,0,0,0-6.12,1.9l0,0A25.41,25.41,0,0,0,8.59,31.09a.1.1,0,0,0,0,.07A24.85,24.85,0,0,0,16.14,35a.1.1,0,0,0,.1,0,17.3,17.3,0,0,0,1.54-2.5.1.1,0,0,0-.05-.13,16.34,16.34,0,0,1-2.35-1.12.1.1,0,0,1,0-.16l.47-.36a.08.08,0,0,1,.09,0,17.78,17.78,0,0,0,15.12,0,.08.08,0,0,1,.09,0l.47.36a.09.09,0,0,1,0,.16,15.24,15.24,0,0,1-2.34,1.12.09.09,0,0,0-.05.13,19.2,19.2,0,0,0,1.53,2.5.11.11,0,0,0,.11,0,25,25,0,0,0,7.52-3.8.16.16,0,0,0,0-.07A25.2,25.2,0,0,0,34,14,.08.08,0,0,0,33.92,13.94ZM18.51,27.67a2.89,2.89,0,0,1-2.7-3,2.88,2.88,0,0,1,2.7-3,2.86,2.86,0,0,1,2.71,3A2.88,2.88,0,0,1,18.51,27.67Zm10,0a2.89,2.89,0,0,1-2.71-3,2.88,2.88,0,0,1,2.71-3,2.86,2.86,0,0,1,2.7,3A2.87,2.87,0,0,1,28.51,27.67Z"/></g></g></svg>